<?xml version="1.0" encoding="UTF-8" standalone="no"?><!DOCTYPE svg PUBLIC "-//W3C//DTD SVG 1.1//EN" "http://www.w3.org/Graphics/SVG/1.1/DTD/svg11.dtd"><svg width="7100px" height="2569px" version="1.1" xmlns="http://www.w3.org/2000/svg" xmlns:xlink="http://www.w3.org/1999/xlink" xml:space="preserve" xmlns:serif="http://www.serif.com/" style="fill-rule:evenodd;clip-rule:evenodd;stroke-linejoin:round;stroke-miterlimit:2;"><g transform="matrix(1,0,0,1,-62698.47083,-3733.333333)"><g transform="matrix(4.166667,0,0,4.166667,61248,0)"><path d="M465,1275L473,1295C473,1295 432,1265 414,1250C407,1244 384,1225 380,1218C376,1210 370,1188 367,1178C362,1160 358,1142 356,1124C366,1135 427,1177 427,1177L465,1275L478,1245L507,1258L494,1288L465,1275ZM504,1415C486,1399 453,1354 453,1354C453,1354 430,1323 423,1310C415,1296 405,1281 400,1266C436,1297 495,1347 545,1348C608,1349 640,1273 590,1235C514,1178 361,1153 348,1044C346,1028 356,959 357,959C549,880 700,871 933,958C934,958 936,1019 936,1019C936,1019 885,997 858,988C733,944 597,937 469,976C462,978 419,993 417,995C416,996 414,1007 414,1009C408,1043 423,1064 450,1081C510,1119 633,1158 667,1219C724,1321 629,1428 524,1427C515,1427 511,1421 504,1415ZM638,1512C620,1501 554,1459 542,1447C637,1435 691,1378 712,1288C730,1213 741,1134 758,1058L758,1051C721,1043 682,1041 644,1039L676,980C682,975 750,986 762,988C821,1000 905,1036 933,1048C935,1049 934,1063 932,1078C930,1094 927,1110 927,1110C927,1110 857,1077 819,1067C806,1126 796,1185 783,1244C776,1277 770,1307 756,1338C742,1369 723,1394 702,1419C798,1349 852,1227 869,1112L923,1136C926,1140 918,1169 917,1175C884,1302 798,1416 688,1486C680,1492 651,1510 643,1512C641,1512 640,1513 638,1512ZM647,978C643,986 615,1040 611,1041C586,1042 562,1045 537,1050C524,1053 490,1065 481,1065C472,1065 452,1053 447,1045C442,1039 436,1020 441,1014C443,1012 473,1003 478,1001C533,986 590,979 647,978ZM712,1131C711,1132 718,1148 719,1154C720,1171 716,1189 717,1206C716,1210 689,1211 685,1206C682,1203 685,1191 684,1190C683,1190 669,1191 665,1190C663,1189 642,1171 615,1155C589,1140 557,1125 554,1124C551,1121 551,1116 554,1114C559,1113 571,1116 574,1113C576,1112 582,1093 586,1089C596,1079 610,1083 615,1080C616,1079 619,1068 620,1067C622,1066 650,1066 653,1067C659,1068 658,1078 662,1080C668,1083 680,1079 689,1088C693,1092 700,1112 702,1113C706,1116 722,1112 725,1115C731,1125 712,1130 712,1131ZM704,1164C710,1159 708,1147 700,1146C694,1146 666,1157 675,1165C681,1168 700,1168 704,1164ZM694,1125C692,1119 685,1095 680,1092C672,1088 610,1088 601,1091C590,1095 584,1115 583,1125L694,1125ZM491,1216L478,1245L449,1232L462,1203L491,1216ZM550,1242L537,1272L508,1258L521,1229L550,1242ZM566,1285L553,1314L524,1301L537,1272L566,1285ZM1088,1225C1072,1225 1056,1223 1041,1219C1026,1215 1013,1209 1004,1203L1022,1161C1031,1167 1042,1172 1053,1175C1065,1179 1077,1181 1088,1181C1096,1181 1102,1180 1107,1179C1112,1177 1115,1176 1117,1173C1119,1171 1121,1168 1121,1165C1121,1160 1118,1157 1114,1154C1110,1151 1105,1149 1098,1147C1091,1146 1084,1144 1076,1142C1068,1141 1060,1138 1052,1136C1044,1133 1036,1130 1030,1125C1023,1121 1018,1116 1014,1109C1009,1102 1007,1093 1007,1082C1007,1070 1011,1060 1017,1050C1024,1040 1033,1032 1047,1027C1060,1021 1076,1018 1095,1018C1109,1018 1121,1019 1134,1022C1147,1025 1158,1029 1168,1035L1150,1077C1141,1072 1132,1068 1122,1065C1113,1063 1104,1062 1095,1062C1087,1062 1081,1062 1076,1064C1072,1066 1068,1068 1066,1070C1064,1073 1063,1076 1063,1079C1063,1084 1065,1087 1069,1090C1073,1092 1079,1094 1085,1096C1092,1098 1100,1099 1108,1101C1116,1103 1124,1105 1132,1107C1140,1110 1147,1113 1154,1118C1160,1122 1166,1128 1170,1134C1174,1141 1176,1150 1176,1161C1176,1172 1173,1183 1166,1193C1160,1202 1150,1210 1137,1216C1124,1222 1108,1225 1088,1225ZM1302,1225C1286,1225 1272,1222 1258,1217C1245,1212 1233,1205 1223,1195C1213,1186 1205,1175 1200,1163C1194,1150 1192,1136 1192,1121C1192,1106 1194,1093 1200,1080C1205,1067 1213,1057 1223,1047C1233,1038 1245,1031 1258,1025C1272,1020 1286,1018 1302,1018C1318,1018 1333,1020 1347,1025C1360,1031 1372,1038 1381,1047C1391,1057 1399,1067 1405,1080C1410,1093 1413,1106 1413,1121C1413,1136 1410,1150 1405,1163C1399,1175 1391,1186 1381,1196C1372,1205 1360,1212 1347,1217C1333,1222 1318,1225 1302,1225ZM1302,1178C1310,1178 1317,1177 1323,1174C1330,1172 1336,1168 1341,1163C1345,1158 1349,1152 1352,1145C1355,1138 1356,1130 1356,1121C1356,1113 1355,1105 1352,1098C1349,1091 1345,1085 1341,1080C1336,1075 1330,1071 1323,1068C1317,1066 1310,1064 1302,1064C1295,1064 1288,1066 1281,1068C1275,1071 1269,1075 1264,1080C1259,1085 1255,1091 1253,1098C1250,1105 1249,1113 1249,1121C1249,1130 1250,1138 1253,1145C1255,1152 1259,1158 1264,1163C1269,1168 1275,1172 1281,1174C1288,1177 1295,1178 1302,1178ZM1534,1225C1505,1225 1482,1217 1466,1201C1449,1185 1441,1162 1441,1132L1441,1022L1497,1022L1497,1130C1497,1147 1501,1160 1507,1167C1514,1174 1523,1178 1535,1178C1547,1178 1556,1174 1563,1167C1569,1160 1573,1147 1573,1130L1573,1022L1628,1022L1628,1132C1628,1162 1620,1185 1603,1201C1587,1217 1564,1225 1534,1225ZM1705,1221L1705,1066L1644,1066L1644,1022L1823,1022L1823,1066L1762,1066L1762,1221L1705,1221ZM1941,1225C1925,1225 1911,1222 1897,1217C1884,1212 1872,1205 1862,1195C1852,1186 1844,1175 1839,1163C1833,1150 1831,1136 1831,1121C1831,1106 1833,1093 1839,1080C1844,1067 1852,1057 1862,1047C1872,1038 1884,1031 1897,1025C1911,1020 1925,1018 1941,1018C1957,1018 1972,1020 1985,1025C1999,1031 2010,1038 2020,1047C2030,1057 2038,1067 2043,1080C2049,1093 2052,1106 2052,1121C2052,1136 2049,1150 2043,1163C2038,1175 2030,1186 2020,1196C2010,1205 1999,1212 1985,1217C1972,1222 1957,1225 1941,1225ZM1941,1178C1949,1178 1956,1177 1962,1174C1969,1172 1975,1168 1979,1163C1984,1158 1988,1152 1991,1145C1994,1138 1995,1130 1995,1121C1995,1113 1994,1105 1991,1098C1988,1091 1984,1085 1979,1080C1975,1075 1969,1071 1962,1068C1956,1066 1949,1064 1941,1064C1934,1064 1927,1066 1920,1068C1913,1071 1908,1075 1903,1080C1898,1085 1894,1091 1892,1098C1889,1105 1887,1113 1887,1121C1887,1130 1889,1138 1892,1145C1894,1152 1898,1158 1903,1163C1908,1168 1913,1172 1920,1174C1927,1177 1934,1178 1941,1178ZM1201,1386L1180,1419L1160,1419L1246,1287L1265,1287L1298,1419L1279,1419L1271,1386L1201,1386ZM1268,1371L1252,1306L1211,1371L1268,1371ZM1423,1365L1373,1419L1351,1419L1415,1351L1380,1287L1400,1287L1427,1338L1474,1287L1496,1287L1436,1352L1472,1419L1452,1419L1423,1365ZM1045,1419L1068,1304L1023,1304L1027,1287L1136,1287L1132,1304L1087,1304L1064,1419L1045,1419ZM1243,1277L1271,1252L1295,1252L1261,1277L1243,1277ZM1547,1419L1573,1287L1592,1287L1566,1419L1547,1419Z" style="fill:url(#_Linear1);"/></g></g><defs><linearGradient id="_Linear1" x1="0" y1="0" x2="1" y2="0" gradientUnits="userSpaceOnUse" gradientTransform="matrix(1099.217084,390.903991,-390.903991,1099.217084,348.112999,989.011946)"><stop offset="0" style="stop-color:rgb(4,58,38);stop-opacity:1"/><stop offset="0" style="stop-color:rgb(5,58,39);stop-opacity:1"/><stop offset="0" style="stop-color:rgb(5,59,39);stop-opacity:1"/><stop offset="0" style="stop-color:rgb(5,61,41);stop-opacity:1"/><stop offset="0" style="stop-color:rgb(5,62,41);stop-opacity:1"/><stop offset="0" style="stop-color:rgb(5,64,43);stop-opacity:1"/><stop offset="0" style="stop-color:rgb(5,68,45);stop-opacity:1"/><stop offset="0" style="stop-color:rgb(5,68,46);stop-opacity:1"/><stop offset="0" style="stop-color:rgb(5,69,46);stop-opacity:1"/><stop offset="0" style="stop-color:rgb(5,70,47);stop-opacity:1"/><stop offset="0" style="stop-color:rgb(6,70,47);stop-opacity:1"/><stop offset="0" style="stop-color:rgb(6,71,47);stop-opacity:1"/><stop offset="0" style="stop-color:rgb(6,71,48);stop-opacity:1"/><stop offset="0" style="stop-color:rgb(6,74,49);stop-opacity:1"/><stop offset="0" style="stop-color:rgb(6,74,50);stop-opacity:1"/><stop offset="0" style="stop-color:rgb(6,75,50);stop-opacity:1"/><stop offset="0" style="stop-color:rgb(6,76,51);stop-opacity:1"/><stop offset="0" style="stop-color:rgb(6,76,51);stop-opacity:1"/><stop offset="0" style="stop-color:rgb(6,77,51);stop-opacity:1"/><stop offset="0" style="stop-color:rgb(6,77,52);stop-opacity:1"/><stop offset="0" style="stop-color:rgb(6,80,53);stop-opacity:1"/><stop offset="0" style="stop-color:rgb(6,80,54);stop-opacity:1"/><stop offset="0" style="stop-color:rgb(6,81,54);stop-opacity:1"/><stop offset="0" style="stop-color:rgb(6,82,55);stop-opacity:1"/><stop offset="0" style="stop-color:rgb(6,82,55);stop-opacity:1"/><stop offset="0" style="stop-color:rgb(6,83,55);stop-opacity:1"/><stop offset="0" style="stop-color:rgb(7,83,56);stop-opacity:1"/><stop offset="0" style="stop-color:rgb(7,86,57);stop-opacity:1"/><stop offset="0" style="stop-color:rgb(7,86,58);stop-opacity:1"/><stop offset="0" style="stop-color:rgb(7,87,58);stop-opacity:1"/><stop offset="0" style="stop-color:rgb(7,87,59);stop-opacity:1"/><stop offset="0" style="stop-color:rgb(7,89,59);stop-opacity:1"/><stop offset="0" style="stop-color:rgb(7,89,60);stop-opacity:1"/><stop offset="0" style="stop-color:rgb(7,90,60);stop-opacity:1"/><stop offset="0" style="stop-color:rgb(7,90,61);stop-opacity:1"/><stop offset="0" style="stop-color:rgb(7,92,61);stop-opacity:1"/><stop offset="0" style="stop-color:rgb(7,92,62);stop-opacity:1"/><stop offset="0" style="stop-color:rgb(7,93,62);stop-opacity:1"/><stop offset="0" style="stop-color:rgb(7,93,63);stop-opacity:1"/><stop offset="0" style="stop-color:rgb(7,95,63);stop-opacity:1"/><stop offset="0" style="stop-color:rgb(7,95,64);stop-opacity:1"/><stop offset="1" style="stop-color:rgb(8,96,64);stop-opacity:1"/><stop offset="1" style="stop-color:rgb(8,96,65);stop-opacity:1"/><stop offset="1" style="stop-color:rgb(8,98,65);stop-opacity:1"/><stop offset="1" style="stop-color:rgb(8,98,66);stop-opacity:1"/><stop offset="1" style="stop-color:rgb(8,99,66);stop-opacity:1"/><stop offset="1" style="stop-color:rgb(8,99,67);stop-opacity:1"/><stop offset="1" style="stop-color:rgb(8,101,67);stop-opacity:1"/><stop offset="1" style="stop-color:rgb(8,101,68);stop-opacity:1"/><stop offset="1" style="stop-color:rgb(8,102,68);stop-opacity:1"/><stop offset="1" style="stop-color:rgb(8,102,69);stop-opacity:1"/><stop offset="1" style="stop-color:rgb(8,104,69);stop-opacity:1"/><stop offset="1" style="stop-color:rgb(8,104,70);stop-opacity:1"/><stop offset="1" style="stop-color:rgb(8,105,70);stop-opacity:1"/><stop offset="1" style="stop-color:rgb(8,105,71);stop-opacity:1"/><stop offset="1" style="stop-color:rgb(8,108,72);stop-opacity:1"/><stop offset="1" style="stop-color:rgb(8,108,73);stop-opacity:1"/><stop offset="1" style="stop-color:rgb(9,111,74);stop-opacity:1"/><stop offset="1" style="stop-color:rgb(9,111,75);stop-opacity:1"/><stop offset="1" style="stop-color:rgb(9,113,76);stop-opacity:1"/><stop offset="1" style="stop-color:rgb(9,114,76);stop-opacity:1"/><stop offset="1" style="stop-color:rgb(9,114,77);stop-opacity:1"/><stop offset="1" style="stop-color:rgb(9,116,78);stop-opacity:1"/><stop offset="1" style="stop-color:rgb(9,117,78);stop-opacity:1"/><stop offset="1" style="stop-color:rgb(9,117,79);stop-opacity:1"/><stop offset="1" style="stop-color:rgb(9,118,79);stop-opacity:1"/><stop offset="1" style="stop-color:rgb(9,118,79);stop-opacity:1"/><stop offset="1" style="stop-color:rgb(9,119,80);stop-opacity:1"/><stop offset="1" style="stop-color:rgb(9,120,80);stop-opacity:1"/><stop offset="1" style="stop-color:rgb(9,120,81);stop-opacity:1"/><stop offset="1" style="stop-color:rgb(9,121,81);stop-opacity:1"/><stop offset="1" style="stop-color:rgb(10,121,81);stop-opacity:1"/><stop offset="1" style="stop-color:rgb(10,123,82);stop-opacity:1"/><stop offset="1" style="stop-color:rgb(10,123,83);stop-opacity:1"/><stop offset="1" style="stop-color:rgb(10,124,83);stop-opacity:1"/><stop offset="1" style="stop-color:rgb(10,124,83);stop-opacity:1"/><stop offset="1" style="stop-color:rgb(10,127,85);stop-opacity:1"/><stop offset="1" style="stop-color:rgb(10,128,86);stop-opacity:1"/><stop offset="1" style="stop-color:rgb(10,128,86);stop-opacity:1"/><stop offset="1" style="stop-color:rgb(10,129,86);stop-opacity:1"/><stop offset="1" style="stop-color:rgb(10,131,88);stop-opacity:1"/><stop offset="1" style="stop-color:rgb(10,132,88);stop-opacity:1"/><stop offset="1" style="stop-color:rgb(10,133,89);stop-opacity:1"/><stop offset="1" style="stop-color:rgb(10,133,89);stop-opacity:1"/></linearGradient></defs></svg>